<svg xmlns="http://www.w3.org/2000/svg" viewBox="0 0 160 160"><ellipse cx="80" cy="142" rx="48" ry="8" fill="#000" opacity=".18"/><path d="M38 80c0-27 18-43 42-43s42 16 42 43-18 50-42 50-42-23-42-50z" fill="#fb7185" stroke="#9f1239" stroke-width="5"/><path d="M42 77L18 56M118 77l24-21M48 111l-24 18M112 111l24 18" stroke="#9f1239" stroke-width="9" stroke-linecap="round"/><circle cx="65" cy="76" r="9" fill="#fff"/><circle cx="95" cy="76" r="9" fill="#fff"/><circle cx="67" cy="78" r="4" fill="#111827"/><circle cx="93" cy="78" r="4" fill="#111827"/><path d="M66 99c10 7 18 7 28 0" stroke="#7f1d1d" stroke-width="5" fill="none" stroke-linecap="round"/><text x="80" y="52" text-anchor="middle" font-family="Arial" font-size="20" font-weight="900" fill="#fff">SEA</text></svg>